<?xml version="1.0" encoding="UTF-8" standalone="no"?>
<!-- Created with Inkscape (http://www.inkscape.org/) -->

<svg
   width="160mm"
   height="160mm"
   viewBox="0 0 160 160"
   version="1.1"
   id="svg5"
   inkscape:version="1.1.2 (b8e25be833, 2022-02-05)"
   sodipodi:docname="Apiraiser 3 Flat.svg"
   xmlns:inkscape="http://www.inkscape.org/namespaces/inkscape"
   xmlns:sodipodi="http://sodipodi.sourceforge.net/DTD/sodipodi-0.dtd"
   xmlns="http://www.w3.org/2000/svg"
   xmlns:svg="http://www.w3.org/2000/svg">
  <sodipodi:namedview
     id="namedview7"
     pagecolor="#ffffff"
     bordercolor="#666666"
     borderopacity="1.0"
     inkscape:pageshadow="2"
     inkscape:pageopacity="0.0"
     inkscape:pagecheckerboard="0"
     inkscape:document-units="mm"
     showgrid="false"
     inkscape:snap-text-baseline="false"
     inkscape:zoom="0.70710678"
     inkscape:cx="381.94442"
     inkscape:cy="342.56599"
     inkscape:window-width="1920"
     inkscape:window-height="1001"
     inkscape:window-x="-9"
     inkscape:window-y="-9"
     inkscape:window-maximized="1"
     inkscape:current-layer="layer1"
     inkscape:rotation="-1" />
  <defs
     id="defs2">
    <rect
       x="258.40182"
       y="365.3746"
       width="277.85141"
       height="227.83815"
       id="rect6962" />
  </defs>
  <g
     inkscape:label="Layer 1"
     id="layer1">
    <path
       id="rect7787"
       style="display:inline;fill:#8effed;stroke-width:7.17112;stroke-miterlimit:4;stroke-dasharray:none;paint-order:stroke fill markers"
       inkscape:label="BackBox"
       d="M 30.236328,0 A 30.23622,30.23622 0 0 0 0,30.236328 V 574.48828 a 30.23622,30.23622 0 0 0 30.236328,30.23633 H 574.48828 a 30.23622,30.23622 0 0 0 30.23633,-30.23633 V 30.236328 A 30.23622,30.23622 0 0 0 574.48828,0 Z"
       transform="scale(0.26458333)" />
    <circle
       style="display:inline;fill:#ffff4d;fill-opacity:1;fill-rule:evenodd;stroke-width:0.535248"
       id="path31"
       cx="80"
       cy="80"
       r="63"
       inkscape:label="Circle" />
    <circle
       style="display:none;fill:#000000;fill-opacity:1;fill-rule:evenodd;stroke-width:0.535248"
       id="path31-5"
       cx="17"
       cy="126"
       r="63"
       inkscape:label="Circle" />
    <path
       id="rect11137"
       style="display:inline;fill:#0094ee;fill-opacity:0.706366;stroke-width:0.164609"
       d="M 109.16083,97.039375 78.517052,115.70397 v 20.53089 l 30.643778,-18.66458 30.64379,18.66458 v -20.53089 z"
       inkscape:label="Symbol 1" />
    <path
       id="rect11137-6"
       style="display:none;fill:#0094b8;fill-opacity:0.529774;stroke-width:0.19094"
       d="M 70.67514,39.244375 57.176317,78.614474 72.398146,96.929837 85.896977,57.559748 127.07206,51.490547 111.85024,33.175188 Z"
       inkscape:label="Symbol 3" />
    <path
       id="rect11137-5"
       style="display:none;fill:#0094b8;fill-opacity:0.529774;stroke-width:0.19094"
       d="M 99.173405,65.065942 72.398146,96.929837 80,119.49902 l 26.77526,-31.863878 40.59693,9.171293 -7.60186,-22.569193 z"
       inkscape:label="Symbol 2" />
    <rect
       style="display:none;fill:#ff0000;fill-opacity:0.137577;stroke-width:0.239362"
       id="rect12515"
       width="160"
       height="160"
       x="0"
       y="0"
       inkscape:label="Outer Box" />
    <g
       aria-label="API"
       id="text7166"
       style="font-size:82.5659px;line-height:1.25;font-family:'Berlin Sans FB';-inkscape-font-specification:'Berlin Sans FB, Normal';display:inline;fill:#ff94b8;fill-opacity:0.827515;stroke-width:2.06415"
       inkscape:label="API">
      <path
         d="m 61.137356,80.693317 q 0,0.483784 -0.96757,0.483784 -0.765992,0 -2.257661,-0.120946 -1.451354,-0.120946 -2.217346,-0.120946 -0.765992,0 -2.297977,0.120946 -1.531984,0.120946 -2.297977,0.120946 -1.12883,0 -2.902707,-6.087623 -1.733562,-6.127938 -3.547754,-6.208568 -1.491669,-0.08063 -7.780868,-0.08063 h -6.369831 q -6.652038,0 -7.579292,0.08063 -1.451353,0.120946 -3.104284,6.208568 -1.612615,6.087623 -2.499554,6.087623 H 8.2435742 q -0.8063077,0 -0.8063077,-0.564415 0,-0.403154 0.5644154,-1.814192 L 17.878951,51.787188 q 1.249776,-3.265546 7.579291,-18.827284 1.128831,-2.580184 3.063969,-7.780869 0.483785,-1.531984 1.0482,-1.531984 0.765993,0 2.257662,0.201577 1.491669,0.201577 2.257661,0.201577 0.725677,0 2.177031,-0.201577 1.491669,-0.241893 2.17703,-0.241893 0.362839,0 1.007885,1.49167 0.967569,2.257661 9.554746,24.310175 12.13493,31.002529 12.13493,31.284737 z M 42.350387,58.439226 q 0,-1.169146 -3.628384,-10.482 -3.507438,-9.030645 -4.958792,-11.852722 -8.345284,21.286522 -8.345284,22.294406 0,1.370723 3.063969,1.612615 0.161262,0.04032 3.950907,0.04032 h 4.152485 q 5.765099,0 5.765099,-1.612615 z"
         id="path10486" />
      <path
         d="m 111.37032,45.497988 q 0,9.474115 -5.12005,15.158584 -5.28132,5.84573 -14.634485,5.84573 -2.297977,0 -6.974562,-0.161262 -4.636269,-0.201576 -6.974561,-0.201576 -1.290092,0 -1.290092,1.65293 0,2.136716 0.241892,6.410146 0.282208,4.273431 0.282208,6.410146 0,0.685361 -0.765992,0.685361 -0.846623,0 -2.580185,-0.161261 -1.693246,-0.201577 -2.539869,-0.201577 -0.725677,0 -2.136715,0.120946 -1.411038,0.120946 -2.0964,0.120946 -1.007884,0 -1.007884,-1.249777 0,-4.394376 0.362838,-13.26376 0.403154,-8.869385 0.403154,-13.304077 0,-12.578399 -0.927254,-27.011306 l -0.04032,-0.60473 q -0.04032,-0.886939 1.0482,-0.886939 2.17703,0 6.531092,0.04032 4.394376,0.04031 6.611722,0.04031 1.894823,0 5.684469,-0.161262 3.789646,-0.161261 5.684469,-0.161261 8.909695,0 14.634475,6.047307 5.60384,5.926361 5.60384,14.836061 z m -10.15947,0.604731 q 0,-6.047308 -3.26555,-9.675692 -3.386493,-3.789646 -9.353169,-3.789646 -1.854508,0 -6.611723,0.322523 -5.442576,0.322523 -5.603838,0.645046 -0.282208,0.483785 -0.282208,13.868492 0,1.693246 0.08063,5.079738 0.120946,3.386492 0.120946,5.079738 0,0.362838 0.886939,0.564415 2.217346,0.443469 12.296191,0.443469 5.644154,0 8.788754,-3.507438 2.943028,-3.346176 2.943028,-9.030645 z"
         id="path10488" />
      <path
         d="m 128.30278,80.330478 q 0,0.846623 -1.16915,0.846623 -0.72567,0 -2.21734,-0.120946 -1.49167,-0.120946 -2.21735,-0.120946 -0.76599,0 -2.25766,0.120946 -1.49167,0.120946 -2.21735,0.120946 -1.00788,0 -1.00788,-0.927254 0,-4.595953 0.40315,-13.828176 0.44347,-9.272538 0.44347,-13.908807 0,-4.475007 -0.44347,-13.425022 -0.40315,-8.99033 -0.40315,-13.465338 0,-1.007884 0.92725,-1.007884 0.766,0 2.3383,0.120946 1.5723,0.120946 2.3786,0.120946 0.72568,0 2.17703,-0.120946 1.45136,-0.120946 2.17703,-0.120946 1.0482,0 1.0482,0.806308 0,4.515322 -0.32252,13.545968 -0.32252,9.030646 -0.32252,13.545968 0,4.636269 0.32252,13.908807 0.36284,9.272538 0.36284,13.908807 z"
         id="path10490" />
    </g>
  </g>
</svg>
